<svg width="76" height="40" viewBox="0 0 76 40" fill="none" xmlns="http://www.w3.org/2000/svg">
<path fill-rule="evenodd" clip-rule="evenodd" d="M13.7791 24.4584L13.9837 27.0239L17.8711 27.9475L20.8379 29.2815L23.1908 31.334L24.3162 30.4104L25.7484 27.2291L27.3852 26.9213L33.3188 27.537L35.3648 28.1527L34.6487 31.6418L33.9326 34.2073L45.7996 33.489L45.3904 27.537L42.9352 22.0981L33.2165 17.3775L25.953 18.3011L20.8379 23.9452L18.5873 25.1767L14.5975 24.9715" fill="#FF5678"/>
<path fill-rule="evenodd" clip-rule="evenodd" d="M62.7106 0.877269C63.5102 1.84904 62.3322 3.22327 61.6643 3.90133C61.3401 4.23054 61.0714 4.611 60.7546 4.94839C60.4415 5.2818 60.0486 5.5442 59.7674 5.86604C59.4722 6.20405 59.1315 6.57398 58.8846 6.95424C58.7285 7.19516 58.4967 7.46421 58.4192 7.74381C58.3076 8.14585 58.4009 7.91363 58.5483 8.14094C58.6988 8.37307 58.7495 8.38647 58.8006 8.71005C58.8502 9.02463 58.9207 9.25481 59.0907 9.52356C59.3707 9.96622 59.673 10.3824 59.8705 10.8718C60.133 11.5228 60.3187 12.1836 60.5278 12.8533C60.6094 13.1145 60.6641 13.4136 60.7958 13.6542C60.9826 13.996 61.009 13.9674 61.2871 13.7542C62.1174 13.1179 62.9571 12.4452 63.8226 11.8388C64.3185 11.4913 64.8335 11.1512 65.3568 10.8468C65.7159 10.6379 66.4876 10.2662 66.6674 9.87845C66.9057 9.36428 66.5347 8.89246 67.0454 8.419C67.3779 8.11066 67.9201 7.93971 68.3534 7.86483C68.9658 7.75905 69.6424 7.91015 70.2542 7.96488C70.8727 8.02012 71.4775 7.95997 72.084 7.83342C73.0125 7.63976 74.7963 6.56815 75.398 7.85552C75.6613 8.4188 75.4833 9.04294 75.4338 9.62034C75.3907 10.1236 75.243 10.6578 74.9295 11.0717C74.5712 11.5446 74.0496 11.5694 73.507 11.695C72.8662 11.8433 72.2087 11.8973 71.5671 12.0419C71.2511 12.1131 70.9393 12.1478 70.6148 12.1628C70.326 12.1762 69.9095 12.0591 69.656 12.0961C69.4157 12.131 69.4978 12.2828 69.329 12.3879C69.2605 12.4306 69.121 12.4 69.0783 12.4344C68.9609 12.5287 68.927 12.6108 68.8414 12.7817C68.5697 13.3244 68.1586 13.8534 67.8091 14.3506C67.5148 14.7694 67.1738 15.2823 66.8276 15.656C66.0936 16.4484 65.3808 17.3216 64.6564 18.1496C64.2878 18.5709 63.8457 19.0191 63.4174 19.3812C63.2853 19.493 63.0181 19.5936 62.9505 19.7501C62.8541 19.9732 63.1163 20.4643 63.1775 20.6885C63.323 21.2217 63.3427 21.7724 63.4971 22.2975C63.6448 22.7998 63.6984 23.3474 63.7311 23.8709C63.8052 25.0541 63.9669 26.1763 63.929 27.3603C63.8962 28.3813 63.8588 29.3604 63.5042 30.3629C63.1814 31.2753 62.2145 32.2687 61.3152 32.6048C60.7799 32.805 60.2826 32.9869 59.744 33.0955C59.2119 33.2027 58.6514 33.3125 58.1232 33.4633C57.1431 33.7432 56.1101 33.9387 55.0923 34.0346C53.7896 34.1573 52.4305 34.169 51.1312 34.1239C50.5386 34.1033 49.9297 34.1021 49.3449 34.1039C48.7389 34.1057 48.168 34.2251 47.5623 34.2886C45.4246 34.5128 43.1654 34.3326 41.0289 34.5518C39.973 34.6602 38.9186 34.8688 37.8443 34.8813C36.8825 34.8923 35.9073 34.8289 34.9667 34.8247C34.6684 34.8234 34.4085 34.8472 34.1105 34.7787C33.9532 34.7426 33.7323 34.6021 33.5735 34.6831C33.4349 34.7538 33.3304 35.052 33.2444 35.179C33.0566 35.4567 32.8278 35.6797 32.5861 35.91C31.6269 36.8241 30.6765 37.1319 29.4176 37.4668C28.8397 37.6207 28.5544 37.7011 28.0692 38.053C27.6739 38.3397 27.2739 38.5456 26.819 38.7146C25.9267 39.0461 24.8744 38.7897 24.0357 38.5021C23.6296 38.3629 23.2029 38.2363 22.788 38.0709C22.2228 37.8459 21.7564 37.472 21.1995 37.242C21.2633 37.8362 20.6188 38.0357 20.4232 38.435C20.2969 38.693 20.3735 39.0982 20.2387 39.3898C20.1138 39.6603 19.9206 39.9161 19.6194 39.9869C19.2089 40.0832 18.4751 39.6267 18.1868 39.3603C18.0267 39.2123 17.8838 38.8185 17.6878 38.7529C17.4321 38.6673 16.9635 39.0455 16.7215 39.1308C15.5636 39.5395 14.3901 39.7322 13.1468 39.5695C11.887 39.4045 10.7322 38.9572 9.5508 38.533C7.23708 37.7024 5.22315 36.3351 3.4114 34.6886C3.31062 34.597 3.16435 34.5153 3.09484 34.3952C3.03413 34.2904 3.03944 34.0428 2.99978 33.9843C2.88173 33.81 2.70489 33.8408 2.4835 33.8242C1.79948 33.7725 1.25611 33.6074 0.725923 33.1491C-0.108555 32.4276 -0.417242 30.7457 0.861971 30.2989C1.18895 30.1847 1.54885 30.1619 1.88687 30.2323C2.02629 30.2614 2.54493 30.5757 2.6774 30.5546C2.87825 30.5227 2.8392 30.2641 2.89256 30.126C3.02789 29.7761 3.21832 29.4679 3.44789 29.1709C3.82946 28.6772 4.29443 28.181 4.77157 27.7792C5.28989 27.3426 5.86066 27.1488 6.47773 26.9071C6.89343 26.7442 7.70491 26.4646 8.14525 26.6103C8.71867 26.8001 8.43799 27.4267 8.07667 27.6458C7.56059 27.959 6.94127 28.0873 6.41834 28.4041C5.84124 28.7538 5.31412 29.2326 4.78598 29.6529C4.36097 29.9911 3.99269 30.4085 3.56094 30.7328C3.44646 30.8187 3.25951 30.9691 3.22394 31.0166C3.21157 31.0331 3.2268 31.1668 3.17017 31.2262C2.91903 31.4898 2.97781 31.4601 2.59961 31.3676C2.15375 31.2585 1.0894 31.0119 0.788785 31.5646C0.518224 32.062 1.62561 32.5102 1.98919 32.6619C2.52295 32.8845 2.64765 33.1082 3.02902 33.5324C3.41968 33.9673 4.06864 34.2628 4.55804 34.587C5.61586 35.2876 6.80492 35.7847 7.93776 36.3413C9.04014 36.8829 10.2252 37.2728 11.3739 37.6517C12.0674 37.8805 12.8985 38.1259 13.6264 38.1964C14.3598 38.2675 15.0476 38.1479 15.7672 38.0079C16.0549 37.952 16.2721 37.9091 16.573 37.803C16.707 37.7557 16.9257 37.7488 17.0321 37.6661C17.197 37.5379 17.1285 37.4355 17.1577 37.2166C17.2855 36.2566 17.9515 37.3283 18.2463 37.6479C18.4737 37.8946 18.6977 38.1978 18.997 38.3541C19.3723 38.5498 19.4374 38.4575 19.5603 38.1348C19.7905 37.5303 19.8771 36.8432 20.747 36.932C20.0602 36.3445 19.4057 35.8454 18.8179 35.1394C18.2379 34.4429 17.6956 33.6944 17.1395 32.9786C16.6836 32.3919 16.2866 31.5823 15.6949 31.1195C15.5079 30.9732 14.9392 30.6361 14.7227 30.6432C14.3988 30.6537 14.1112 31.1829 13.7622 31.2269C13.3768 31.2756 13.1993 31.1411 13.0893 30.8281C12.9751 30.5035 13.248 30.1299 13.1558 29.8939C13.1301 29.8282 12.9661 29.7496 12.9154 29.6542C12.8391 29.511 12.8336 29.3226 12.8564 29.164C12.8905 28.9273 12.9742 28.8307 12.9563 28.5925C12.9355 28.3158 12.8142 28.1134 12.9098 27.824C13.01 27.52 13.3186 27.3534 13.5112 27.1289C13.8027 26.789 13.6538 26.5328 13.5369 26.0961C13.2864 25.1619 12.9944 24.2383 12.7403 23.3046C12.1559 23.4895 11.5846 23.6991 10.9971 23.8714C10.4321 24.0372 9.73285 24.1859 9.20859 24.4474C8.89356 24.6046 8.98106 24.4602 9.00436 24.8092C9.01929 25.0351 9.11476 25.2875 9.15912 25.5103C9.24099 25.9217 9.27666 26.9834 9.59894 27.1799C9.79407 27.299 10.1081 27.126 10.3226 27.3664C10.5033 27.5686 10.4492 27.8627 10.5579 28.0875C10.6255 28.2272 10.7562 28.2804 10.8376 28.4088C11.0075 28.6772 10.9894 28.9029 11.0193 29.2038C11.0381 29.3931 11.009 29.9605 11.1032 30.1077C11.229 30.304 11.4781 30.27 11.6881 30.3312C12.2174 30.4852 12.7048 30.7533 13.1543 31.0658C13.3875 31.351 15.0569 33.0209 14.3319 33.2334C13.9818 33.336 13.3624 32.5474 13.1104 32.333C12.7199 32.0008 12.3108 31.7826 11.8346 31.5994C10.6723 31.1522 9.62072 30.7504 8.355 30.9361C7.81234 31.0156 7.15316 31.2559 6.60805 31.203C6.05947 31.1498 6.20155 30.6605 6.54458 30.3874C6.85132 30.1433 7.27827 30.212 7.41289 29.8027C7.54873 29.3892 7.40287 28.8666 7.62089 28.4523C7.80703 28.0984 8.24583 27.7311 8.58457 27.5261C8.73227 27.4368 8.98545 27.3744 9.06263 27.2427C9.1259 27.1347 8.86515 26.5155 8.82896 26.3868C8.65193 25.7562 8.45895 25.125 8.309 24.4875C8.16999 23.8967 8.1338 23.5905 8.75619 23.3761C9.70607 23.0488 10.7019 22.8957 11.6522 22.5947C11.4838 22.156 10.9573 22.5252 10.5791 22.5099C10.1158 22.4913 9.57983 22.3389 9.13867 22.1966C8.13718 21.8734 7.45572 21.0677 7.30096 20.0287C7.26693 19.8008 7.37415 19.3437 7.29115 19.1421C7.21285 18.9518 6.99146 18.8592 6.82965 18.7235C6.41262 18.374 6.04321 17.8942 5.81824 17.3977C5.59276 16.9 5.57702 16.3409 5.70805 15.8157C5.78022 15.5263 5.821 15.4865 5.71899 15.2128C5.60083 14.8963 5.40816 14.6144 5.2992 14.2891C5.12073 13.7563 5.02342 13.1819 5.03313 12.6192C5.04417 11.988 5.29736 11.7049 5.46509 11.1483C5.59746 10.709 5.41685 10.1019 5.4471 9.6144C5.48584 8.99067 5.6455 8.48959 5.92117 7.9344C6.34475 7.0814 7.01548 6.16702 7.88849 5.71975C8.06113 5.63126 8.34488 5.62604 8.49912 5.52323C8.69077 5.39545 8.7058 5.20712 8.78082 4.98328C8.9598 4.44946 9.18324 4.01703 9.57022 3.60895C10.8253 2.28546 13.0247 1.81671 14.7885 1.92843C15.1052 1.94858 15.4072 2.09845 15.7074 2.01037C15.9154 1.9493 16.1358 1.73262 16.3502 1.6429C16.6216 1.52934 16.8935 1.46295 17.1855 1.4339C17.7622 1.3764 18.2313 1.43717 18.7628 1.63185C18.9634 1.70541 19.1556 1.78571 19.3534 1.86551C19.6656 1.99165 19.6478 1.9316 19.9415 1.87308C20.5268 1.75656 20.8631 1.8428 21.3816 2.09252C21.5198 2.15901 21.7384 2.20843 21.8572 2.30162C22.0254 2.4337 22.094 2.83503 22.2813 2.90991C22.3851 2.95155 22.7063 2.7984 22.8402 2.77661C23.0765 2.73805 23.3079 2.77201 23.543 2.76945C23.9593 2.76495 24.3994 2.7804 24.7795 2.97723C25.0658 3.12536 25.4104 3.4112 25.6569 3.60158C25.998 3.86491 26.2111 4.36281 26.6371 4.50072C26.8039 4.55473 26.9844 4.5001 27.1547 4.54614C27.3767 4.60609 27.5899 4.76691 27.7697 4.9089C28.079 5.1531 28.3406 5.72078 28.6557 5.82001C28.8659 5.8863 29.1928 5.81714 29.4334 5.88579C29.7354 5.97193 29.9857 6.09674 30.2095 6.32518C30.6365 6.76099 30.7571 7.40518 30.7754 7.99608C30.7803 8.15537 30.6821 8.60448 30.7775 8.74586C30.8623 8.87128 31.1816 8.94361 31.3116 9.0723C31.718 9.47466 31.9016 10.1452 31.9427 10.6964C31.9897 11.3253 31.8273 11.7686 31.7155 12.3704C31.6459 12.7456 31.5558 12.5053 31.8724 12.7262C32.0898 12.878 32.2399 12.984 32.3809 13.2222C32.6757 13.7201 32.7498 14.3071 32.7011 14.8746C32.6403 15.5826 32.2812 16.1103 32.1197 16.7802C32.8638 16.7802 33.6654 16.9768 34.3924 17.114C34.6606 17.1646 34.8684 17.312 35.1064 17.4303C35.3119 17.5323 35.4651 17.5442 35.659 17.6118C36.1281 17.7754 36.0374 17.7481 36.3638 17.4133C37.6638 16.0799 39.5143 15.2749 41.3804 15.3011C42.4213 15.3156 43.4282 15.453 44.4013 15.8276C44.8046 15.9828 45.2529 16.1502 45.6108 16.3937C46.0253 16.6758 46.0869 16.6726 46.6349 16.684C48.6192 16.7251 50.5446 17.7907 51.9887 19.0823C52.1177 18.216 53.5248 17.6965 54.2063 17.3374C54.4391 17.2148 54.6531 17.1508 54.7677 16.9209C54.8749 16.7058 54.8685 16.2632 54.9402 16.0098C55.0718 15.5445 55.2237 14.9751 55.2119 14.4843C55.1778 13.0634 54.849 11.6491 54.8064 10.2249C54.7957 9.8673 54.7551 9.46586 54.8026 9.11169C54.841 8.82637 54.9712 8.64847 54.7839 8.38432C54.4284 7.88294 53.7729 7.75772 53.5525 7.09766C53.1973 6.03403 53.8075 4.94635 54.6405 4.31371C55.1202 3.94951 55.5889 3.87238 55.9733 3.36178C56.3195 2.90173 56.6121 2.35769 57.0068 1.93947C57.3377 1.58888 57.6392 1.11911 58.0185 0.827345C58.4073 0.528213 58.9783 0.32596 59.4426 0.183862C60.5574 -0.157419 61.9262 -0.075985 62.7106 0.877269ZM27.8665 27.5972C27.6072 27.6083 27.3462 27.6374 27.0864 27.6371C26.9284 27.6369 26.5611 27.5516 26.4187 27.6117C26.1342 27.7322 25.9039 28.391 25.7709 28.6539C25.3401 29.5063 25.0008 30.4 24.5805 31.2557C24.3619 31.7008 24.0354 31.9935 23.5195 32.0006C22.9415 32.0086 22.6695 31.6383 22.3027 31.2583C21.5712 30.5004 20.5866 29.8488 19.6786 29.3216C18.6979 28.7524 17.5284 28.2007 16.4118 27.9997C15.6682 27.8659 13.9646 27.2886 13.5122 28.2212C13.7434 28.1903 14.6258 28.0553 14.6633 28.4463C14.6914 28.7397 13.6058 28.7899 13.4717 29.2499C13.7556 29.2278 14.7353 28.9544 14.8042 29.3762C14.8408 29.6004 14.4314 29.7133 14.2874 29.789C14.002 29.939 13.8302 30.0948 13.6055 30.3204C13.9522 30.3204 14.2939 30.0261 14.623 30.0568C14.7587 30.0695 14.922 30.2724 15.0454 30.3343C15.2206 30.422 15.4097 30.4657 15.6029 30.4896C16.0235 30.5417 16.2781 30.423 16.6135 30.697C16.9146 30.9429 17.2277 31.2676 17.5051 31.5414C18.0971 32.1258 18.5845 32.8676 19.0924 33.5244C19.7195 34.3353 20.3707 34.979 21.2049 35.5863C21.8839 36.0805 22.5721 36.4007 23.3415 36.7645C24.0962 37.1216 25.0455 37.5356 25.9017 37.5552C26.5847 37.571 27.4384 37.3519 28.06 37.0604C28.4215 36.8909 28.553 36.8911 28.9147 36.824C29.4762 36.7198 30.126 36.4185 30.6458 36.182C32.278 35.4395 33.3123 33.8213 34.0482 32.2374C34.4671 31.3359 34.7287 30.455 34.9033 29.4797C34.9984 28.9483 35.0813 28.8236 34.5636 28.6039C34.0406 28.382 33.4755 28.2448 32.9312 28.0881C31.3347 27.6284 29.515 27.527 27.8665 27.5972ZM31.7665 17.9823C31.6036 18.0557 31.5171 18.8387 31.4439 19.0131C31.1177 19.7916 30.5391 20.2773 29.6905 20.3583C29.4271 20.3835 28.9975 20.1437 28.8087 20.257C28.5559 20.4088 28.5102 21.1345 28.2382 21.3725C27.9878 21.5918 27.4661 21.8235 27.145 21.9078C26.897 21.9728 26.6511 21.9549 26.404 21.8976C26.263 21.865 25.9942 21.6909 25.8562 21.7566C25.6212 21.8685 25.5105 22.4644 25.2423 22.6666C24.8501 22.9621 24.2273 23.181 23.7472 23.1755C23.2521 23.1698 22.6553 22.7787 22.2144 22.8723C21.6911 22.9834 21.7599 23.4701 21.5314 23.8506C21.0462 24.6586 20.4949 25.3546 19.6226 25.7403C18.6791 26.1575 17.3266 26.2106 16.3369 25.9983C15.799 25.8829 15.2591 25.7198 14.805 25.4114C14.4433 25.1657 14.1718 24.8385 13.8368 24.5609L13.782 24.5165L13.7847 24.5264C13.7922 24.5522 13.7997 24.5775 13.8074 24.602C13.967 25.1107 14.0378 26.0132 14.3548 26.428C14.6384 26.7993 15.6233 26.82 16.0974 26.87C17.3681 27.0039 18.4607 27.3013 19.5816 27.9386C20.6544 28.5486 21.6344 29.2869 22.5632 30.0825C22.754 30.2458 22.9065 30.5078 23.1373 30.613C23.5143 30.7847 23.4838 30.5842 23.5835 30.2486C23.788 29.5602 24.0049 28.8802 24.3166 28.2313C24.45 27.9531 24.7536 27.6086 24.8188 27.3132C24.8811 27.0299 24.753 26.7207 24.7966 26.4164C24.9065 25.6479 25.2535 24.9925 25.6884 24.3709C25.9903 23.9395 26.8937 23.205 26.7783 24.2908C26.6931 25.0927 26.1076 25.803 25.9636 26.5909C26.4075 26.5081 26.6861 26.5323 27.0858 26.5575C27.6311 26.592 28.2512 26.3786 28.8134 26.3768C29.8911 26.3734 30.9527 26.4437 32.0121 26.6357C32.5027 26.7247 32.9698 26.8252 33.4429 26.9931C33.8145 27.125 34.3087 27.545 34.7047 27.5771C34.9917 27.6003 34.8917 27.6379 34.9698 27.393C35.0423 27.1658 34.9644 26.757 34.9498 26.5186C34.9169 25.9792 34.7876 25.4542 34.7206 24.9183C34.6918 24.6884 34.4174 23.7298 34.707 23.544C35.1502 23.2597 35.3354 24.3752 35.3918 24.575C35.6809 25.5993 35.8668 26.6084 35.8582 27.6793C35.8506 28.6054 35.7891 29.4956 35.6159 30.4164C35.5134 30.9602 35.3256 31.4826 35.1148 31.9925C35.0038 32.2612 34.3526 33.2795 34.4432 33.4588C34.5157 33.6026 35.6223 33.3523 35.7925 33.3378C36.3982 33.286 37.0055 33.3221 37.6119 33.2861C38.5082 33.2328 39.4112 33.2437 40.2695 33.0857C40.7813 32.9914 41.3243 33.0816 41.8356 33.0848C42.3995 33.0885 42.9445 33.0364 43.5121 33.0902C43.9432 33.131 44.59 33.3585 45.0058 33.264C45.4315 33.1672 45.3058 32.8823 45.3087 32.4489C45.3157 31.4019 45.2225 30.1969 44.9886 29.1788C44.8652 28.642 44.6993 28.1224 44.6108 27.5768C44.5223 27.0309 44.5269 26.4409 44.3622 25.9123C44.0701 24.9744 43.2671 24.1603 42.6019 23.4672C41.9174 22.7539 41.156 22.2361 40.3162 21.7246C39.6024 21.2899 38.8482 20.8817 38.0748 20.5416C37.1467 20.1334 36.0928 19.8818 35.2327 19.3444C34.5169 18.8972 33.4815 18.4563 32.6557 18.2492C32.525 18.2165 31.8589 17.9408 31.7665 17.9823ZM57.2618 9.31425C56.6663 9.39793 55.5531 9.10709 55.5536 9.92806C55.5538 10.3784 55.7032 10.8506 55.7456 11.3012C55.7956 11.8328 55.7611 12.3679 55.842 12.8975C55.9732 13.7548 56.1655 14.5465 56.1011 15.4273C56.0309 16.3848 55.8314 17.3048 55.85 18.2759C55.8676 19.2001 55.8178 20.0913 56.257 20.9394C56.4423 21.2974 56.5927 21.7181 56.7966 22.0531C57.0356 22.4458 57.2426 22.5608 57.6697 22.7189C57.9372 22.818 58.5959 22.9469 58.7691 23.2138C59.0194 23.599 58.6852 23.7548 58.3562 23.7418C57.34 23.7013 56.2966 23.2479 55.3438 22.9168C54.8955 22.7609 54.4641 22.5646 54.0235 22.3944C53.6715 22.2585 53.3845 22.2115 53.0644 21.9796C52.2842 21.4144 51.6819 20.6332 50.9125 20.0534C49.4569 18.9567 47.7118 18.3018 45.8836 18.1076C45.4132 18.0575 45.049 18.08 44.5779 18.1199C44.3173 18.142 44.0592 18.1491 43.8011 18.197C43.6521 18.2247 43.0915 18.491 42.9751 18.4356C42.2188 18.0761 44.3603 16.9818 44.6011 16.922C44.2969 16.7076 43.6649 16.7446 43.2999 16.6969C42.8339 16.6359 42.3809 16.5765 41.9103 16.6022C41.2525 16.6382 40.5527 16.6187 39.907 16.7607C39.0981 16.9385 38.332 17.2116 37.601 17.5947C37.3569 17.7226 37.0135 17.8781 37.0159 18.2345C37.018 18.5694 37.1514 18.5146 37.4776 18.5888C38.3563 18.7888 39.1695 19.3711 39.9524 19.8148C40.7848 20.2864 41.6139 20.8163 42.3863 21.3814C43.8671 22.4649 44.7122 24.0237 45.3699 25.7181C45.71 26.5945 45.9567 27.6179 46.059 28.5519C46.173 29.5911 46.0779 30.6362 46.1593 31.6743C46.1784 31.9196 46.2112 32.8985 46.3963 33.0511C46.5367 33.1668 47.2338 32.9599 47.4302 32.9464C48.2515 32.8898 49.0778 32.8955 49.8835 32.849C51.5862 32.7509 53.3319 32.8878 55.0502 32.7868C55.9146 32.736 56.7513 32.6144 57.599 32.44C58.3869 32.278 59.3686 32.2586 60.0873 31.8842C61.4708 31.1635 62.3141 29.426 62.3749 27.9548C62.4407 26.36 62.3317 24.6245 61.9968 23.0358C61.8212 22.2027 61.6689 21.4099 61.4622 20.5866C61.2309 19.665 60.9712 18.7473 60.7173 17.8371C60.2799 16.2702 59.5991 14.8104 59.2733 13.2045C59.094 12.3211 58.84 11.3975 58.5748 10.5353C58.4771 10.2176 58.2844 9.61389 58.057 9.37246C57.818 9.11895 57.6174 9.26433 57.2618 9.31425ZM8.71919 28.3974C8.36052 28.6269 8.10191 29.1428 8.11827 29.5682C8.11827 30.1296 8.58437 29.8904 9.02358 29.9108C9.29097 29.9232 10.2798 30.1974 10.4537 29.9327C10.6613 29.6165 10.0369 29.7576 9.95792 29.588C9.79816 29.245 10.5307 29.1001 10.4412 28.8029C10.3517 28.5057 9.60733 29.1916 9.44777 28.8464C9.30007 28.5269 10.052 28.2506 9.93656 28.0306C9.83864 27.8441 8.84593 28.3162 8.71919 28.3974ZM10.2767 25.4722C10.2748 25.7115 10.1923 26.0298 9.8948 25.981C9.52326 25.92 9.41061 25.2067 9.37668 24.9369C9.61463 24.0483 10.2807 24.9271 10.2767 25.4722ZM21.0652 17.835C20.6356 17.9023 20.5872 18.0947 20.3863 18.3898C20.2947 18.3168 20.2378 18.2199 20.2159 18.0992C19.2002 18.5567 18.1434 18.9141 17.0418 19.0832C15.8143 19.2718 14.5339 18.9864 13.2866 18.8702C13.1252 18.8552 12.6298 18.6557 12.4983 18.7349C12.3894 18.8004 12.3912 19.3508 12.3823 19.4572C12.3217 20.1823 12.46 20.823 12.5665 21.5326C12.5949 21.7216 12.567 22.1308 12.716 22.292C12.8207 22.4054 13.0072 22.3641 13.1399 22.5353C13.4975 22.9971 13.609 23.8916 13.7737 24.4871L13.7778 24.5016L13.7786 24.4909C13.8295 23.8838 14.3042 24.1957 14.6574 24.3549C15.1884 24.5942 15.7449 24.7222 16.3193 24.8027C16.7812 24.8675 17.3053 25.0223 17.7792 24.9975C18.2768 24.9716 18.889 24.7746 19.3735 24.6328C19.8325 24.4986 20.0858 24.208 20.4027 23.8339C20.7053 23.4766 21.0347 23.2319 21.3614 22.913C22.1842 22.1097 21.9589 20.4454 21.2441 19.6592C21.8224 19.3624 22.8254 18.71 21.9458 18.0483C21.7185 17.8772 21.3394 17.7921 21.0652 17.835ZM13.7778 24.5016L13.777 24.5125L13.782 24.5165L13.7778 24.5016ZM16.5954 23.1226C16.8235 23.1399 16.9873 23.3113 16.9273 23.5477C16.8515 23.8462 16.3324 24.0332 16.0729 24.0498C15.3851 24.132 16.0357 23.0803 16.5954 23.1226ZM14.4233 21.974C14.448 22.1473 14.4235 22.2553 14.5738 22.3116C14.6887 22.3546 14.9058 22.2661 15.047 22.3259C15.188 22.3857 15.1925 22.422 15.2791 22.5625C15.181 22.8692 14.7312 23.2161 14.3703 23.0317C13.9214 22.8023 13.8796 21.8977 14.0027 21.5116C14.2112 20.8572 14.3865 21.7155 14.4233 21.974ZM54.3315 18.5189C54.1443 18.5869 53.9791 18.7798 53.8116 18.8847C53.3662 19.1639 52.8789 19.3122 52.4523 19.6178C52.757 19.9465 52.9166 20.3923 53.2141 20.7086C53.4003 20.9065 53.6267 20.9285 53.8507 21.036C54.5051 21.3499 55.2753 21.7916 55.9981 21.9416C55.5748 21.4465 55.3063 20.9985 55.055 20.3969C54.9651 20.1817 54.8524 19.9542 54.7851 19.7308C54.6886 19.4108 54.7406 19.0722 54.6588 18.7564C54.5707 18.4155 54.6922 18.388 54.3315 18.5189ZM13.1887 20.3935C13.379 20.6181 13.5253 21.1244 13.5414 21.4113C13.3407 22.3728 12.6685 21.0462 12.6889 20.6156C12.708 20.2184 12.9165 20.0724 13.1887 20.3935ZM15.0097 19.8673C15.3359 20.1455 15.4424 20.61 15.4762 20.9939C15.513 21.4099 15.418 21.5868 15.0035 21.3194C14.6406 21.0852 14.4591 20.4618 14.4403 20.0965C14.4403 19.6801 14.6937 19.5977 15.0097 19.8673ZM21.5714 18.6764C21.6529 19.1106 20.6912 19.5568 20.8482 18.8769C20.8168 18.4431 21.4849 18.2165 21.5714 18.6764ZM66.9753 10.8191C66.249 11.7058 65.3694 12.2687 64.4605 12.9387C63.6554 13.5323 62.8888 14.1735 62.0171 14.6662C61.7612 14.811 61.342 14.8952 61.2957 15.164C61.2522 15.4168 61.7214 16.0957 61.8299 16.3697C62.196 17.294 62.4662 18.2426 62.7524 19.1964C63.6055 17.8668 64.466 16.5152 65.5116 15.3131C66.4344 14.2522 67.381 13.1421 68.1877 11.999C67.6994 11.7016 67.2948 11.2914 66.9753 10.8191ZM72.2995 8.7744C71.4905 9.02719 70.5587 9.16949 69.7156 9.08335C69.3334 9.04427 68.957 9.01174 68.5711 8.98791C68.2822 8.9701 67.7936 8.82923 67.5452 9.05184C67.3101 9.26228 67.3385 9.68111 67.4582 9.94269C67.5356 10.1118 67.643 10.1391 67.7131 10.2792C67.7357 10.3243 67.6687 10.4022 67.7269 10.5083C67.8868 10.8003 68.4308 11.2882 68.7238 11.4368C69.0997 11.6276 69.156 11.4057 69.449 11.2135C70.0661 10.8089 71.1027 10.8015 71.8256 10.7287C71.8402 10.8842 73.9352 10.1367 74.142 9.99947C74.5287 9.743 74.9818 8.56253 74.5704 8.21266C74.0738 7.79035 72.7799 8.62412 72.2995 8.7744ZM58.2111 3.14746C57.9564 3.55319 57.6178 3.9888 57.2417 4.29233C56.8169 4.63514 56.2655 4.76824 55.7799 5.00282C55.34 5.2152 54.949 5.42799 54.6744 5.83781C54.4844 6.12129 54.1363 6.51904 54.295 6.88436C54.4574 7.25807 55.0972 7.52017 55.3751 7.84498C55.7578 8.29215 55.7583 8.20437 56.3315 8.08079C56.6178 8.019 56.8898 7.99977 57.1825 8.01C57.3008 8.01409 57.7005 8.1301 57.8055 8.05225C57.9398 7.9525 57.8077 7.53838 57.8247 7.37726C57.8507 7.13214 57.9377 6.87925 58.0203 6.64815C58.3478 5.7307 58.9705 5.12568 59.5759 4.43003C60.2254 3.68363 61.1153 3.15974 61.7553 2.40986C62.1087 1.99584 61.9478 1.70316 61.4629 1.50929C61.2165 1.41088 60.9277 1.41129 60.6748 1.33282C60.4134 1.25169 60.1804 1.0919 59.9003 1.08873C58.7097 1.04095 58.6717 2.41324 58.2111 3.14746Z" fill="black"/>
</svg>
