<svg width="71" height="70" viewBox="0 0 71 70" fill="none" xmlns="http://www.w3.org/2000/svg">
<path d="M34.1976 29.4927C34.0522 29.3359 33.8481 29.2466 33.634 29.2466H4.75284C4.53891 29.2466 4.33463 29.3357 4.18929 29.4927C4.04395 29.6495 3.97052 29.86 3.98695 30.0732L6.98207 69.2899C7.01258 69.6905 7.34646 69.9995 7.74797 69.9995H10.9053H17.453C17.4541 69.9995 17.4552 69.9995 17.456 69.9995H31.0303V53.7295C31.4318 53.7295 32.1776 58.4062 32.2084 58.0059L34.4001 30.0733C34.4163 29.8598 34.343 29.6496 34.1976 29.4927ZM10.9051 59.6763C10.3297 58.8266 9.9928 57.8037 9.9928 56.7054C9.9928 55.6037 10.3294 54.5792 10.9051 53.7293V59.6763Z" fill="#FBAE2E"/>
<g opacity="0.15">
<path d="M13.5169 59.6762V53.7292C12.9411 54.5791 12.6046 55.6036 12.6046 56.7053C12.6046 57.8036 12.9415 58.8265 13.5169 59.6762Z" fill="#202020"/>
<path d="M9.59365 69.2899L6.59852 30.0732C6.58223 29.8598 6.65552 29.6495 6.80086 29.4927C6.9462 29.3359 7.15034 29.2466 7.36442 29.2466H4.75272C4.53878 29.2466 4.33451 29.3357 4.18917 29.4927C4.04383 29.6495 3.9704 29.86 3.98682 30.0732L6.98195 69.2899C7.01259 69.6905 7.34634 69.9995 7.74785 69.9995H10.3595C9.95803 69.9998 9.62429 69.6905 9.59365 69.2899Z" fill="#202020"/>
</g>
<path d="M33.1103 0.88389L30.6596 0.0418037C30.4669 -0.024586 30.2559 -0.0114737 30.0727 0.0781041C29.8895 0.167544 29.7496 0.325858 29.6835 0.51854L23.7121 17.8999C23.6315 18.1347 23.6691 18.3938 23.8133 18.5959C23.9574 18.7978 24.1902 18.9177 24.4384 18.9177H27.1786C27.5065 18.9177 27.7985 18.7095 27.9052 18.3992L33.5871 1.86C33.725 1.45862 33.5116 1.02178 33.1103 0.88389Z" fill="#DCE0E2"/>
<path d="M34.5832 18.4568H3.80351C3.37922 18.4568 3.0354 18.8006 3.0354 19.2249V24.9835C3.0354 25.4078 3.37922 25.7516 3.80351 25.7516H34.5833C35.0075 25.7516 35.3514 25.4078 35.3514 24.9835V19.2249C35.3514 18.8006 35.0075 18.4568 34.5832 18.4568Z" fill="#F7BF6D"/>
<path opacity="0.15" d="M5.64696 24.9835V19.2249C5.64696 18.8006 5.99078 18.4568 6.41506 18.4568H3.80351C3.37922 18.4568 3.0354 18.8006 3.0354 19.2249V24.9835C3.0354 25.4078 3.37922 25.7516 3.80351 25.7516H6.4152C5.99078 25.7518 5.64696 25.408 5.64696 24.9835Z" fill="#202020"/>
<path d="M4.20816 32.9716H34.1788L34.4632 29.2466H3.92383L4.20816 32.9716Z" fill="#F7BF6D"/>
<path d="M4.20807 32.9717H34.1787L34.7432 26.3418H3.67212L4.20807 32.9717Z" fill="#F7BF6D"/>
<path d="M65.3488 51.3862H15.312C12.3741 51.3862 9.9928 53.7681 9.9928 56.7057C9.9928 59.6426 12.3741 62.0246 15.312 62.0246H16.0454H64.6159H64.931H65.3491C68.2867 62.0246 70.6687 59.6426 70.6687 56.7057C70.6684 53.7681 68.2864 51.3862 65.3488 51.3862Z" fill="#E95353"/>
<path d="M38.3868 25.9266C38.3868 24.5517 37.2721 23.4368 35.8969 23.4368H2.48996C1.11468 23.4368 0 24.5517 0 25.9266V26.7565C0 28.1318 1.11468 29.2466 2.48996 29.2466H35.8969C37.2721 29.2466 38.3868 28.1318 38.3868 26.7565V25.9266Z" fill="#8C5549"/>
<path opacity="0.15" d="M3.92377 29.2468L4.2081 32.9718H6.81993L6.53546 29.2468H3.92377Z" fill="#202020"/>
<path opacity="0.15" d="M2.6117 26.7565V25.9266C2.6117 24.5517 3.72638 23.4368 5.10166 23.4368H2.48996C1.11468 23.4368 0 24.5517 0 25.9266V26.7565C0 28.1318 1.11468 29.2466 2.48996 29.2466H5.10166C3.72638 29.2466 2.6117 28.1318 2.6117 26.7565Z" fill="#202020"/>
<path d="M23.2187 51.3862L22.1076 52.5262C21.6633 52.9819 21.6727 53.7114 22.1284 54.1555C22.3524 54.3739 22.6426 54.4827 22.9326 54.4827C23.2324 54.4827 23.5319 54.3663 23.7577 54.1347L26.1959 51.6332C26.2694 51.5577 26.3293 51.4742 26.3781 51.3862H23.2187Z" fill="#F96969"/>
<path d="M30.9722 51.3862L29.8611 52.5263C29.4168 52.9819 29.4262 53.7114 29.8819 54.1555C30.1059 54.3739 30.3961 54.4827 30.686 54.4827C30.9858 54.4827 31.2853 54.3663 31.5112 54.1346L33.9493 51.633C34.0229 51.5575 34.0827 51.4742 34.1315 51.3862H30.9722Z" fill="#F96969"/>
<path d="M38.7258 51.3862L37.6149 52.5263C37.1707 52.9819 37.1801 53.7114 37.6358 54.1555C37.86 54.3739 38.1501 54.4827 38.44 54.4827C38.7398 54.4827 39.0394 54.3663 39.2651 54.1346L41.7033 51.633C41.7768 51.5575 41.8365 51.4742 41.8855 51.3862H38.7258Z" fill="#F96969"/>
<path d="M46.4789 51.3862L45.3681 52.5262C44.9239 52.9819 44.9333 53.7114 45.3889 54.1555C45.613 54.3739 45.9031 54.4827 46.1931 54.4827C46.493 54.4827 46.7924 54.3663 47.0183 54.1347L49.4565 51.6332C49.5301 51.5577 49.5899 51.4742 49.6387 51.3862H46.4789Z" fill="#F96969"/>
<path d="M54.2326 51.3862L53.1218 52.5262C52.6776 52.9819 52.687 53.7114 53.1426 54.1555C53.3666 54.3739 53.6568 54.4827 53.9467 54.4827C54.2467 54.4827 54.546 54.3663 54.772 54.1347L57.2102 51.6332C57.2838 51.5577 57.3435 51.4742 57.3924 51.3862H54.2326Z" fill="#F96969"/>
<g opacity="0.15">
<path d="M12.6045 56.7054C12.6045 53.7677 14.9858 51.386 17.9237 51.386H15.312C12.3741 51.386 9.9928 53.7679 9.9928 56.7054C9.9928 59.6423 12.3741 62.0244 15.312 62.0244H16.0454C16.0496 61.9126 16.0581 61.8016 16.069 61.6914C14.0459 60.9385 12.6045 58.9903 12.6045 56.7054Z" fill="#202020"/>
</g>
<path d="M59.09 56.7051H21.5712C18.5163 56.7051 16.04 59.1812 16.04 62.2363V63.2167V63.4881V64.4688C16.04 67.5237 18.5163 69.9999 21.5712 69.9999H52.1323H55.9216H59.0902C62.1449 69.9999 64.6214 67.5237 64.6214 64.4688V63.4881V63.2167V62.2363C64.6212 59.1812 62.1446 56.7051 59.09 56.7051Z" fill="#F7BD63"/>
<path opacity="0.15" d="M18.6519 64.4688V63.4881V63.2167V62.2363C18.6519 59.1812 21.1282 56.7051 24.1829 56.7051H21.5711C18.5162 56.7051 16.0399 59.1812 16.0399 62.2363V63.2167V63.4881V64.4688C16.0399 67.5237 18.5162 69.9999 21.5711 69.9999H24.1829C21.1282 69.9999 18.6519 67.5234 18.6519 64.4688Z" fill="#202020"/>
</svg>
