<svg width="65" height="65" viewBox="0 0 65 65" fill="none" xmlns="http://www.w3.org/2000/svg">
<path d="M52.899 3.8031H45.9841L42.5267 14.1754L39.0692 3.8031H32.1543L29.3884 27.3137H55.665L52.899 3.8031Z" fill="#FDFA7B"/>
<path d="M28.0054 24.5479L32.1543 32.8457H52.899L57.0479 24.5479H28.0054Z" fill="#FDCE6E"/>
<path d="M59.8138 24.5478V32.8457H52.8989V24.5478L56.3564 21.7819L59.8138 24.5478Z" fill="#FDA162"/>
<path d="M45.984 24.5478V32.8457H39.0692V24.5478L42.5266 21.7819L45.984 24.5478Z" fill="#FDA162"/>
<path d="M32.1543 24.5478V32.8457H25.2394V24.5478L28.6968 21.7819L32.1543 24.5478Z" fill="#FDA162"/>
<path d="M59.8138 1.03711H52.8989V24.5477H59.8138V1.03711Z" fill="#FDCE6E"/>
<path d="M45.984 1.03711H39.0692V24.5477H45.984V1.03711Z" fill="#FDCE6E"/>
<path d="M32.1543 1.03711H25.2394V24.5477H32.1543V1.03711Z" fill="#FDCE6E"/>
<path d="M59.8139 28.6969H55.6649L57.0479 63.9629H61.1968L63.6378 32.8334C63.8162 30.5584 62.0958 28.6969 59.8139 28.6969Z" fill="#B4462F"/>
<path d="M55.6649 28.6969C57.9468 28.6969 59.6672 30.5584 59.4888 32.8334L57.0479 63.9629H23.8564L21.4154 32.8334C21.237 30.5584 22.9574 28.6969 25.2394 28.6969H55.6649Z" fill="#EF431D"/>
<path d="M45.984 50.1328H5.18616V57.0477H45.984V50.1328Z" fill="#B4462F"/>
<path d="M45.984 37.6863H5.18616V44.6012H45.984V37.6863Z" fill="#84B044"/>
<path d="M45.984 43.218H41.8351V51.5159H45.984C48.2659 51.5159 50.133 49.6489 50.133 47.367C50.133 45.085 48.2659 43.218 45.984 43.218Z" fill="#975D50"/>
<path d="M41.8352 43.218C44.1171 43.218 45.9841 45.085 45.9841 47.367C45.9841 49.6489 44.1171 51.5159 41.8352 51.5159H5.18623C2.90431 51.5159 1.03729 49.6489 1.03729 47.367C1.03729 45.085 2.90431 43.218 5.18623 43.218H41.8352Z" fill="#B1786B"/>
<path d="M44.601 55.6646L36.3032 63.9624H40.4521C45.0353 63.9624 48.75 60.2477 48.75 55.6646H44.601Z" fill="#FD7555"/>
<path d="M48.75 34.9203V39.0692H43.2181L25.5851 47.3671V30.7714L48.75 34.9203Z" fill="#FDFA7B"/>
<path d="M43.5942 34.9203L25.5851 47.3671L7.95208 39.0692H2.42017V34.9203L25.5851 30.7714L43.5942 34.9203Z" fill="#FEFDCA"/>
<path d="M36.3032 16.9414H32.1543L44.6011 34.9201H48.75V28.6967C48.75 22.2313 43.149 16.9414 36.3032 16.9414Z" fill="#FD7555"/>
<path d="M2.42017 55.6646H44.601C44.601 60.2477 40.8863 63.9624 36.3031 63.9624H10.718C6.13485 63.9624 2.42017 60.2477 2.42017 55.6646Z" fill="#FDA162"/>
<path d="M44.601 28.6967V34.9201H2.42017V28.6967C2.42017 22.2313 8.02123 16.9414 14.867 16.9414H32.1542C39 16.9414 44.601 22.2313 44.601 28.6967Z" fill="#FDA162"/>
<path d="M15.9042 24.8936C16.4771 24.8936 16.9415 24.4292 16.9415 23.8563C16.9415 23.2835 16.4771 22.8191 15.9042 22.8191C15.3314 22.8191 14.867 23.2835 14.867 23.8563C14.867 24.4292 15.3314 24.8936 15.9042 24.8936Z" fill="#FEFDCA"/>
<path d="M20.7447 29.0426C21.3175 29.0426 21.7819 28.5782 21.7819 28.0054C21.7819 27.4325 21.3175 26.9681 20.7447 26.9681C20.1718 26.9681 19.7075 27.4325 19.7075 28.0054C19.7075 28.5782 20.1718 29.0426 20.7447 29.0426Z" fill="#FEFDCA"/>
<path d="M30.4256 29.0426C30.9984 29.0426 31.4628 28.5782 31.4628 28.0054C31.4628 27.4325 30.9984 26.9681 30.4256 26.9681C29.8528 26.9681 29.3884 27.4325 29.3884 28.0054C29.3884 28.5782 29.8528 29.0426 30.4256 29.0426Z" fill="#FEFDCA"/>
<path d="M25.5851 24.8936C26.1579 24.8936 26.6223 24.4292 26.6223 23.8563C26.6223 23.2835 26.1579 22.8191 25.5851 22.8191C25.0122 22.8191 24.5479 23.2835 24.5479 23.8563C24.5479 24.4292 25.0122 24.8936 25.5851 24.8936Z" fill="#FEFDCA"/>
<path d="M35.2659 24.8936C35.8388 24.8936 36.3032 24.4292 36.3032 23.8563C36.3032 23.2835 35.8388 22.8191 35.2659 22.8191C34.6931 22.8191 34.2287 23.2835 34.2287 23.8563C34.2287 24.4292 34.6931 24.8936 35.2659 24.8936Z" fill="#FEFDCA"/>
<path d="M63.4103 29.2077C62.7218 28.4629 61.8362 27.9683 60.8511 27.7648V1.03723C60.8511 0.464404 60.3868 0 59.8138 0H52.899C52.326 0 51.8617 0.464404 51.8617 1.03723V2.76596H47.0213V1.03723C47.0213 0.464404 46.557 0 45.9841 0H39.0692C38.4962 0 38.0319 0.464404 38.0319 1.03723V2.76596H33.1915V1.03723C33.1915 0.464404 32.7272 0 32.1543 0H25.2394C24.6665 0 24.2021 0.464404 24.2021 1.03723V12.7926C24.2021 13.3654 24.6665 13.8298 25.2394 13.8298C25.8122 13.8298 26.2766 13.3654 26.2766 12.7926V2.07447H31.117V15.9043H14.867C7.43187 15.9043 1.383 21.6429 1.383 28.6968V34.9202C1.383 35.493 1.8474 35.9574 2.42023 35.9574H48.75C49.323 35.9574 49.7873 35.493 49.7873 34.9202V28.6968C49.7873 25.7844 48.7554 23.0968 47.0213 20.9442V4.84043H51.8617V24.5479C51.8617 25.1207 52.326 25.5851 52.899 25.5851C53.4719 25.5851 53.9362 25.1207 53.9362 24.5479V2.07447H58.7766V27.6596H52.899C52.326 27.6596 51.8617 28.124 51.8617 28.6968C51.8617 29.2696 52.326 29.734 52.899 29.734H59.8138C60.625 29.734 61.3613 30.0473 61.8871 30.616C62.413 31.1848 62.6678 31.9434 62.6043 32.752L60.2379 62.9255H49.7682C49.1952 62.9255 48.7309 63.3899 48.7309 63.9628C48.7309 64.5356 49.1952 65 49.7682 65H61.197C61.7384 65 62.1887 64.5836 62.231 64.0438L64.6725 32.9141C64.7816 31.5222 64.3334 30.2059 63.4103 29.2077ZM33.1915 4.84043H38.0319V13.0874C38.0319 13.6602 38.4962 14.1246 39.0692 14.1246C39.6421 14.1246 40.1064 13.6602 40.1064 13.0874V2.07447H44.9468V18.8864C42.6048 17.026 39.5897 15.9043 36.3032 15.9043H33.1915V4.84043ZM47.7128 33.883H3.45746V28.6968C3.45746 22.7868 8.57573 17.9787 14.867 17.9787H36.3032C42.5944 17.9787 47.7128 22.7868 47.7128 28.6968V33.883Z" fill="black"/>
<path d="M48.75 54.6277H2.42023C1.8474 54.6277 1.383 55.0921 1.383 55.6649C1.383 60.8124 5.57065 65 10.7181 65H40.4521C45.5996 65 49.7873 60.8124 49.7873 55.6649C49.7873 55.0921 49.323 54.6277 48.75 54.6277ZM40.4521 62.9256H10.7181C7.06676 62.9256 4.03624 60.2162 3.53131 56.7022H47.6389C47.1341 60.2162 44.1036 62.9256 40.4521 62.9256Z" fill="black"/>
<path d="M0 47.3671C0 50.2268 2.32645 52.5533 5.18617 52.5533H45.984C48.8438 52.5533 51.1702 50.2268 51.1702 47.3671C51.1702 44.5074 48.8438 42.1809 45.984 42.1809H39.0418L43.45 40.1065H48.75C49.323 40.1065 49.7872 39.642 49.7872 39.0692C49.7872 38.4964 49.323 38.032 48.75 38.032H43.2181C43.0654 38.032 42.9147 38.0657 42.7765 38.1307L25.5851 46.2207L8.39385 38.1307C8.25569 38.0657 8.10495 38.032 7.95227 38.032H2.42035C1.84752 38.032 1.38312 38.4964 1.38312 39.0692C1.38312 39.642 1.84752 40.1065 2.42035 40.1065H7.72034L12.1286 42.1809H5.18617C2.32645 42.1809 0 44.5074 0 47.3671ZM25.1435 48.3056C25.2833 48.3714 25.4342 48.4043 25.5851 48.4043C25.736 48.4043 25.8869 48.3714 26.0267 48.3056L34.6335 44.2554H45.984C47.6998 44.2554 49.0957 45.6512 49.0957 47.3671C49.0957 49.0829 47.6998 50.4788 45.984 50.4788H5.18617C3.47031 50.4788 2.07447 49.0829 2.07447 47.3671C2.07447 45.6512 3.47031 44.2554 5.18617 44.2554H16.5368L25.1435 48.3056Z" fill="black"/>
</svg>
