<svg width="18" height="30" viewBox="0 0 18 30" fill="none" xmlns="http://www.w3.org/2000/svg">
<path d="M12 13.5H6C5.20435 13.5 4.44129 13.1839 3.87868 12.6213C3.31607 12.0587 3 11.2956 3 10.5C3 9.70435 3.31607 8.94129 3.87868 8.37868C4.44129 7.81607 5.20435 7.5 6 7.5H13.5C13.8978 7.5 14.2794 7.65804 14.5607 7.93934C14.842 8.22064 15 8.60218 15 9C15 9.39782 15.158 9.77936 15.4393 10.0607C15.7206 10.342 16.1022 10.5 16.5 10.5C16.8978 10.5 17.2794 10.342 17.5607 10.0607C17.842 9.77936 18 9.39782 18 9C18 7.80653 17.5259 6.66193 16.682 5.81802C15.8381 4.97411 14.6935 4.5 13.5 4.5H10.5V1.5C10.5 1.10218 10.342 0.720644 10.0607 0.43934C9.77936 0.158035 9.39782 0 9 0C8.60218 0 8.22064 0.158035 7.93934 0.43934C7.65804 0.720644 7.5 1.10218 7.5 1.5V4.5H6C4.4087 4.5 2.88258 5.13214 1.75736 6.25736C0.632141 7.38258 0 8.9087 0 10.5C0 12.0913 0.632141 13.6174 1.75736 14.7426C2.88258 15.8679 4.4087 16.5 6 16.5H12C12.7956 16.5 13.5587 16.8161 14.1213 17.3787C14.6839 17.9413 15 18.7044 15 19.5C15 20.2956 14.6839 21.0587 14.1213 21.6213C13.5587 22.1839 12.7956 22.5 12 22.5H4.5C4.10218 22.5 3.72064 22.342 3.43934 22.0607C3.15804 21.7794 3 21.3978 3 21C3 20.6022 2.84196 20.2206 2.56066 19.9393C2.27936 19.658 1.89782 19.5 1.5 19.5C1.10218 19.5 0.720645 19.658 0.43934 19.9393C0.158036 20.2206 0 20.6022 0 21C0 22.1935 0.474106 23.3381 1.31802 24.182C2.16193 25.0259 3.30653 25.5 4.5 25.5H7.5V28.5C7.5 28.8978 7.65804 29.2794 7.93934 29.5607C8.22064 29.842 8.60218 30 9 30C9.39782 30 9.77936 29.842 10.0607 29.5607C10.342 29.2794 10.5 28.8978 10.5 28.5V25.5H12C13.5913 25.5 15.1174 24.8679 16.2426 23.7426C17.3679 22.6174 18 21.0913 18 19.5C18 17.9087 17.3679 16.3826 16.2426 15.2574C15.1174 14.1321 13.5913 13.5 12 13.5Z" fill="#CED0CE"/>
</svg>
