<svg width="30" height="20" viewBox="0 0 30 20" fill="none" xmlns="http://www.w3.org/2000/svg">
<path d="M27.5 20H2.5C1.12125 20 0 18.8787 0 17.5V2.5C0 1.12125 1.12125 0 2.5 0H27.5C28.8787 0 30 1.12125 30 2.5V17.5C30 18.8787 28.8787 20 27.5 20ZM2.5 1.25C1.81062 1.25 1.25 1.81062 1.25 2.5V17.5C1.25 18.1894 1.81062 18.75 2.5 18.75H27.5C28.1894 18.75 28.75 18.1894 28.75 17.5V2.5C28.75 1.81062 28.1894 1.25 27.5 1.25H2.5Z" fill="#CED0CE"/>
<path d="M15 13.2444L4.03563 6.15002C3.89639 6.06001 3.79861 5.91838 3.7638 5.75628C3.72899 5.59418 3.76 5.42488 3.85001 5.28565C3.94001 5.14641 4.08165 5.04863 4.24375 5.01382C4.40585 4.979 4.57514 5.01001 4.71438 5.10002L15 11.7556L25.2856 5.10002C25.4249 5.01001 25.5942 4.979 25.7563 5.01382C25.9184 5.04863 26.06 5.14641 26.15 5.28565C26.24 5.42488 26.271 5.59418 26.2362 5.75628C26.2014 5.91838 26.1036 6.06001 25.9644 6.15002L15 13.2444Z" fill="#CED0CE"/>
<path d="M3.75063 16.25C3.61643 16.2501 3.48574 16.2071 3.37789 16.1272C3.27005 16.0473 3.19077 15.9349 3.1518 15.8065C3.11283 15.678 3.11622 15.5405 3.16148 15.4142C3.20675 15.2878 3.29147 15.1794 3.40313 15.105L9.02813 11.355C9.09642 11.3094 9.17301 11.2777 9.25353 11.2618C9.33405 11.2458 9.41692 11.2459 9.49742 11.262C9.57792 11.2781 9.65446 11.3098 9.72268 11.3555C9.79089 11.4011 9.84945 11.4598 9.895 11.5281C9.94056 11.5964 9.97221 11.673 9.98816 11.7535C10.0041 11.834 10.0041 11.9169 9.98798 11.9974C9.9719 12.0779 9.94013 12.1544 9.89447 12.2226C9.84881 12.2908 9.79017 12.3494 9.72188 12.395L4.09688 16.145C3.99427 16.2132 3.87385 16.2497 3.75063 16.25Z" fill="#CED0CE"/>
<path d="M26.2494 16.25C26.1306 16.25 26.01 16.2156 25.9031 16.145L20.2781 12.395C20.2098 12.3494 20.1512 12.2908 20.1055 12.2226C20.0599 12.1544 20.0281 12.0779 20.012 11.9974C19.996 11.9169 19.9959 11.834 20.0118 11.7535C20.0278 11.673 20.0594 11.5964 20.105 11.5281C20.1506 11.4598 20.2091 11.4011 20.2773 11.3555C20.3455 11.3098 20.4221 11.2781 20.5026 11.262C20.5831 11.2459 20.666 11.2458 20.7465 11.2618C20.827 11.2777 20.9036 11.3094 20.9719 11.355L26.5969 15.105C26.7085 15.1794 26.7933 15.2878 26.8385 15.4142C26.8838 15.5405 26.8872 15.678 26.8482 15.8065C26.8092 15.9349 26.73 16.0473 26.6221 16.1272C26.5143 16.2071 26.3836 16.2501 26.2494 16.25Z" fill="#CED0CE"/>
</svg>
