<svg width="50" height="50" viewBox="0 0 50 50" fill="none" xmlns="http://www.w3.org/2000/svg">
<path fill-rule="evenodd" clip-rule="evenodd" d="M25 50C38.807 50 50 38.807 50 25C50 11.1929 38.807 0 25 0C11.1929 0 0 11.1929 0 25C0 38.807 11.1929 50 25 50ZM22.5 15C22.5 13.6193 23.6192 12.5 25 12.5C26.3808 12.5 27.5 13.6193 27.5 15V22.5H35C36.3807 22.5 37.5 23.6192 37.5 25C37.5 26.3808 36.3807 27.5 35 27.5H27.5V35C27.5 36.3807 26.3808 37.5 25 37.5C23.6192 37.5 22.5 36.3807 22.5 35V27.5H15C13.6193 27.5 12.5 26.3808 12.5 25C12.5 23.6192 13.6193 22.5 15 22.5H22.5V15Z" fill="#191919"/>
</svg>
