<svg width="30" height="23" viewBox="0 0 30 23" fill="none" xmlns="http://www.w3.org/2000/svg">
<path d="M15 1.5C13.1211 1.5 11.2844 2.05717 9.72209 3.10104C8.15982 4.14491 6.94218 5.62861 6.22315 7.36451C5.50412 9.1004 5.31598 11.0105 5.68254 12.8534C6.0491 14.6962 6.95389 16.3889 8.28249 17.7175C9.61109 19.0461 11.3038 19.9509 13.1466 20.3175C14.9895 20.684 16.8996 20.4959 18.6355 19.7769C20.3714 19.0578 21.8551 17.8402 22.899 16.2779C23.9428 14.7156 24.5 12.8789 24.5 11C24.4972 8.4813 23.4954 6.06655 21.7144 4.28555C19.9335 2.50456 17.5187 1.50278 15 1.5ZM15 19.5C13.3189 19.5 11.6755 19.0015 10.2777 18.0675C8.87984 17.1335 7.79037 15.806 7.14703 14.2528C6.50368 12.6996 6.33536 10.9906 6.66333 9.34173C6.9913 7.69289 7.80085 6.17834 8.9896 4.98959C10.1783 3.80085 11.6929 2.9913 13.3417 2.66333C14.9906 2.33535 16.6996 2.50368 18.2528 3.14702C19.806 3.79037 21.1335 4.87983 22.0675 6.27765C23.0015 7.67547 23.5 9.31886 23.5 11C23.4975 13.2536 22.6012 15.4141 21.0076 17.0076C19.4141 18.6011 17.2536 19.4975 15 19.5Z" fill="#CED0CE"/>
<path d="M5.5 5.5V0.5H4.5V5H4V0.5H3V5H2.5V0.5H1.5V5H1V0.5H0V8C0.000378374 8.31014 0.096688 8.61256 0.275722 8.86581C0.454755 9.11905 0.707746 9.31071 1 9.4145V21C1 21.3978 1.15804 21.7794 1.43934 22.0607C1.72064 22.342 2.10218 22.5 2.5 22.5H3C3.39782 22.5 3.77936 22.342 4.06066 22.0607C4.34196 21.7794 4.5 21.3978 4.5 21V9.4145C4.79225 9.31071 5.04524 9.11905 5.22428 8.86581C5.40331 8.61256 5.49962 8.31014 5.5 8V5.5ZM4.5 8C4.5 8.13261 4.44732 8.25979 4.35355 8.35355C4.25979 8.44732 4.13261 8.5 4 8.5C3.86739 8.5 3.74021 8.55268 3.64645 8.64645C3.55268 8.74021 3.5 8.86739 3.5 9V21C3.5 21.1326 3.44732 21.2598 3.35355 21.3536C3.25979 21.4473 3.13261 21.5 3 21.5H2.5C2.36739 21.5 2.24021 21.4473 2.14645 21.3536C2.05268 21.2598 2 21.1326 2 21V9C2 8.86739 1.94732 8.74021 1.85355 8.64645C1.75979 8.55268 1.63261 8.5 1.5 8.5C1.36739 8.5 1.24021 8.44732 1.14645 8.35355C1.05268 8.25979 1 8.13261 1 8V6H4.5V8ZM29.5 0C28.3069 0.00132343 27.1631 0.475854 26.3195 1.31948C25.4759 2.16311 25.0013 3.30693 25 4.5V11C25 11.3978 25.158 11.7794 25.4393 12.0607C25.7206 12.342 26.1022 12.5 26.5 12.5V22C26.5 22.1326 26.5527 22.2598 26.6464 22.3536C26.7402 22.4473 26.8674 22.5 27 22.5H29.5C29.6326 22.5 29.7598 22.4473 29.8536 22.3536C29.9473 22.2598 30 22.1326 30 22V0.5C30 0.367392 29.9473 0.240215 29.8536 0.146447C29.7598 0.0526785 29.6326 0 29.5 0ZM29 21.5H27.5V12C27.5 11.8674 27.4473 11.7402 27.3536 11.6464C27.2598 11.5527 27.1326 11.5 27 11.5H26.5C26.3674 11.5 26.2402 11.4473 26.1464 11.3536C26.0527 11.2598 26 11.1326 26 11V4.5C26.001 3.65862 26.3047 2.84568 26.8555 2.20962C27.4062 1.57357 28.1674 1.15683 29 1.0355V21.5Z" fill="#CED0CE"/>
<path d="M27.5 3H26.5V10.5H27.5V3Z" fill="#CED0CE"/>
<path d="M15 6C14.0111 6 13.0444 6.29325 12.2222 6.84265C11.3999 7.39206 10.759 8.17295 10.3806 9.08658C10.0022 10.0002 9.90315 11.0055 10.0961 11.9755C10.289 12.9454 10.7652 13.8363 11.4645 14.5355C12.1637 15.2348 13.0546 15.711 14.0246 15.9039C14.9945 16.0969 15.9998 15.9978 16.9134 15.6194C17.8271 15.241 18.6079 14.6001 19.1574 13.7779C19.7068 12.9556 20 11.9889 20 11C19.9985 9.67436 19.4713 8.40344 18.5339 7.46607C17.5966 6.52871 16.3256 6.00146 15 6ZM15 15C14.2089 15 13.4355 14.7654 12.7777 14.3259C12.1199 13.8864 11.6072 13.2616 11.3045 12.5307C11.0017 11.7998 10.9225 10.9956 11.0769 10.2196C11.2312 9.44371 11.6122 8.73098 12.1716 8.17157C12.731 7.61216 13.4437 7.2312 14.2196 7.07686C14.9956 6.92252 15.7998 7.00173 16.5307 7.30448C17.2616 7.60723 17.8864 8.11992 18.3259 8.77772C18.7654 9.43552 19 10.2089 19 11C18.9988 12.0605 18.577 13.0772 17.8271 13.8271C17.0772 14.577 16.0605 14.9988 15 15Z" fill="#CED0CE"/>
</svg>
