<svg width="27" height="25" viewBox="0 0 27 25" fill="none" xmlns="http://www.w3.org/2000/svg">
<path d="M23.1362 24.9999H15.4243V17.8388H11.0174V24.9999H3.30545V13.432C3.30545 13.2859 3.36349 13.1458 3.46679 13.0424C3.5701 12.9391 3.71021 12.8811 3.85631 12.8811C4.0024 12.8811 4.14251 12.9391 4.24582 13.0424C4.34912 13.1458 4.40716 13.2859 4.40716 13.432V23.8982H9.91571V16.7371H16.526V23.8982H22.0345V13.9828C22.0345 13.8367 22.0926 13.6966 22.1959 13.5933C22.2992 13.49 22.4393 13.432 22.5854 13.432C22.7315 13.432 22.8716 13.49 22.9749 13.5933C23.0782 13.6966 23.1362 13.8367 23.1362 13.9828V24.9999Z" fill="#F15025"/>
<path d="M25.8905 13.432C25.7487 13.4322 25.6123 13.3776 25.5099 13.2795L13.2208 1.52477L0.93182 13.2795C0.826266 13.3805 0.684903 13.4354 0.538829 13.4322C0.392756 13.429 0.253937 13.3679 0.152912 13.2624C0.0518863 13.1568 -0.00306996 13.0155 0.000132509 12.8694C0.00333497 12.7233 0.0644338 12.5845 0.169988 12.4835L13.2208 0L26.2711 12.4829C26.3507 12.5589 26.4057 12.657 26.429 12.7645C26.4523 12.8721 26.4428 12.9841 26.4019 13.0862C26.3609 13.1884 26.2903 13.2759 26.1992 13.3375C26.108 13.3991 26.0005 13.4321 25.8905 13.432Z" fill="#F15025"/>
<path d="M21.4837 6.82171C21.3376 6.82171 21.1975 6.76367 21.0942 6.66037C20.9908 6.55706 20.9328 6.41695 20.9328 6.27085V2.96572H17.6277C17.4816 2.96572 17.3415 2.90769 17.2382 2.80438C17.1349 2.70108 17.0768 2.56096 17.0768 2.41487C17.0768 2.26877 17.1349 2.12866 17.2382 2.02536C17.3415 1.92205 17.4816 1.86401 17.6277 1.86401H22.0345V6.27085C22.0345 6.41695 21.9765 6.55706 21.8732 6.66037C21.7699 6.76367 21.6298 6.82171 21.4837 6.82171Z" fill="#F15025"/>
</svg>
