<svg width="27" height="30" viewBox="0 0 27 30" fill="none" xmlns="http://www.w3.org/2000/svg">
<path d="M13.0857 0C8.43744 0 4.65139 3.78605 4.65139 8.43427C4.65041 8.53475 4.6656 8.63474 4.69638 8.7304C4.7751 11.6899 6.05711 14.2783 7.56403 16.6774C9.12343 19.157 10.9284 21.4811 12.0867 23.854C12.1628 24.0103 12.281 24.1424 12.4279 24.2354C12.5749 24.3284 12.7448 24.3787 12.9187 24.3807C13.0926 24.3826 13.2636 24.3361 13.4126 24.2464C13.5616 24.1567 13.6826 24.0273 13.7623 23.8727C14.9806 21.5018 16.8773 19.1739 18.5155 16.6961C20.1517 14.2183 21.5499 11.5418 21.5499 8.44926C21.5516 8.33018 21.5306 8.21186 21.4881 8.10065C21.3063 3.61174 17.6195 0 13.0857 0ZM13.0857 1.87428C16.7218 1.87428 19.6456 4.80003 19.6456 8.43427C19.6447 8.5016 19.651 8.56883 19.6644 8.63482C19.6082 11.0864 18.4761 13.358 16.9523 15.6634C15.6628 17.6145 14.2046 19.6294 12.947 21.7229C11.753 19.6387 10.3773 17.6276 9.15342 15.6821C7.66711 13.3149 6.55567 10.987 6.55567 8.44739C6.55543 8.3927 6.55042 8.33814 6.54067 8.28432C6.57407 6.57136 7.27858 4.93996 8.50262 3.74116C9.72665 2.54237 11.3724 1.87199 13.0857 1.87428ZM13.0857 5.62659C11.545 5.62659 10.2742 6.89736 10.2742 8.43802C10.2742 9.97868 11.545 11.2494 13.0857 11.2494C14.6282 11.2494 15.8971 9.97868 15.8971 8.43802C15.8971 6.89736 14.6282 5.62659 13.0857 5.62659ZM13.0857 7.50087C13.6142 7.50087 14.0228 7.90947 14.0228 8.43802C14.0228 8.96656 13.6142 9.37516 13.0857 9.37516C12.9621 9.37692 12.8395 9.35389 12.725 9.30742C12.6105 9.26095 12.5064 9.19199 12.4191 9.10461C12.3317 9.01724 12.2627 8.91322 12.2163 8.79872C12.1698 8.68423 12.1468 8.56157 12.1485 8.43802C12.1485 7.90947 12.5571 7.50087 13.0857 7.50087ZM20.7515 17.2977C20.5331 17.2983 20.3218 17.3751 20.154 17.5148C19.9862 17.6546 19.8725 17.8485 19.8325 18.0632C19.7925 18.2779 19.8287 18.4998 19.9349 18.6906C20.0411 18.8814 20.2106 19.0292 20.4141 19.1083C22.2828 19.8655 23.4842 20.857 24.0015 21.7698C24.5207 22.6826 24.5075 23.4716 23.8309 24.4425C22.4721 26.3843 18.1406 28.1049 13.1962 28.1255C8.25002 28.1442 3.85857 26.4705 2.42287 24.5231C1.70502 23.5485 1.66941 22.7557 2.1511 21.8466C2.63467 20.9395 3.7911 19.9386 5.62977 19.1664C5.74854 19.1226 5.85722 19.0552 5.94923 18.9683C6.04124 18.8814 6.11469 18.7767 6.16514 18.6606C6.21559 18.5445 6.24199 18.4194 6.24276 18.2928C6.24353 18.1662 6.21864 18.0408 6.1696 17.9241C6.12057 17.8074 6.04839 17.7018 5.95744 17.6138C5.86649 17.5257 5.75864 17.457 5.6404 17.4118C5.52217 17.3666 5.396 17.3458 5.26951 17.3507C5.14301 17.3555 5.01882 17.386 4.90442 17.4402C2.80523 18.3211 1.27394 19.5056 0.496112 20.9695C-0.281715 22.4314 -0.146766 24.197 0.914077 25.6364C3.03576 28.5116 7.86954 30.0222 13.2075 29.9998C18.5436 29.9773 23.3324 28.431 25.3678 25.5202C26.3856 24.0639 26.4549 22.2908 25.6302 20.8439C24.8093 19.3969 23.2443 18.2311 21.117 17.3708C21.0014 17.3216 20.8771 17.2961 20.7515 17.2959V17.2977Z" fill="#CED0CE"/>
</svg>
