<svg width="25" height="25" viewBox="0 0 25 25" fill="none" xmlns="http://www.w3.org/2000/svg">
<path d="M19.7924 0.00140999L19.9796 0.0184632C20.5457 0.121567 20.9209 0.663979 20.8177 1.22995L19.9034 6.2482L23.9585 6.24864C24.5338 6.2487 25 6.71512 25 7.2904C25 7.86569 24.5335 8.33202 23.9581 8.33196L19.5238 8.33148L18.0059 16.6623L21.8748 16.6622C22.45 16.6621 22.9165 17.1284 22.9165 17.7039C22.9165 18.2791 22.4502 18.7455 21.8748 18.7455L17.6263 18.7457L16.6439 24.1378C16.5407 24.7038 15.9983 25.079 15.4323 24.9759C14.8664 24.8728 14.4912 24.3305 14.5943 23.7644L15.5087 18.7457L7.21242 18.7461L6.23076 24.1413C6.12778 24.7071 5.58545 25.0825 5.01946 24.9796C4.45346 24.8765 4.07811 24.3342 4.18109 23.7684L5.09487 18.7461L1.0417 18.7463C0.466413 18.7463 0 18.2801 0 17.7047C0 17.1295 0.466329 16.663 1.04162 16.663L5.47393 16.6628L6.99009 8.33016L3.11647 8.32977C2.54119 8.32971 2.07486 7.86329 2.07492 7.28801C2.07498 6.71272 2.5414 6.24639 3.11668 6.24645L7.36913 6.24689L8.35014 0.855373C8.45312 0.289378 8.99542 -0.0859734 9.56144 0.0170049C10.1274 0.119983 10.5028 0.662312 10.3998 1.22831L9.48661 6.24712L17.7859 6.24799L18.7682 0.856519C18.8713 0.290544 19.4136 -0.0846609 19.9796 0.0184632L19.7924 0.00140999ZM9.10757 8.33039L7.59148 16.6628L15.8883 16.6624L17.4063 8.33127L9.10757 8.33039Z" fill="#CED0CE"/>
</svg>
