<svg width="25" height="25" viewBox="0 0 25 25" fill="none" xmlns="http://www.w3.org/2000/svg">
<mask id="path-1-inside-1_69_32" fill="white">
<path d="M15.0095 0V10.2425C15.0188 10.3173 15.0042 10.393 14.9678 10.459C14.9315 10.5249 14.8752 10.5777 14.8071 10.6097C14.7389 10.6418 14.6624 10.6514 14.5884 10.6373C14.5144 10.6232 14.4468 10.5861 14.3952 10.5313L11.7703 7.72785C11.7382 7.6893 11.6981 7.65827 11.6528 7.63697C11.6074 7.61568 11.5579 7.60464 11.5078 7.60464C11.4577 7.60464 11.4082 7.61568 11.3628 7.63697C11.3174 7.65827 11.2773 7.6893 11.2453 7.72785L8.62033 10.5313C8.56873 10.5861 8.5011 10.6232 8.42713 10.6373C8.35316 10.6514 8.27662 10.6418 8.20848 10.6097C8.14033 10.5777 8.08406 10.5249 8.04771 10.459C8.01136 10.393 7.9968 10.3173 8.0061 10.2425V0H15.0095Z"/>
</mask>
<path d="M15.0095 0H16.0095V-1H15.0095V0ZM15.0095 10.2425H14.0095V10.3045L14.0171 10.3661L15.0095 10.2425ZM14.3952 10.5313L13.6653 11.2148L13.667 11.2166L14.3952 10.5313ZM11.7703 7.72785L11.001 8.36682L11.02 8.38966L11.0403 8.41133L11.7703 7.72785ZM11.2453 7.72785L11.9752 8.41133L11.9955 8.38966L12.0145 8.36682L11.2453 7.72785ZM8.62033 10.5313L9.34858 11.2166L9.3503 11.2148L8.62033 10.5313ZM8.0061 10.2425L8.99844 10.3661L9.0061 10.3045V10.2425H8.0061ZM8.0061 0V-1H7.0061V0H8.0061ZM14.0095 0V10.2425H16.0095V0H14.0095ZM14.0171 10.3661C14.0004 10.2315 14.0266 10.095 14.0921 9.97624L15.8436 10.9417C15.9818 10.691 16.0371 10.4031 16.0018 10.119L14.0171 10.3661ZM14.0921 9.97624C14.1575 9.85748 14.2589 9.76243 14.3816 9.70472L15.2325 11.5147C15.4916 11.3929 15.7054 11.1924 15.8436 10.9417L14.0921 9.97624ZM14.3816 9.70472C14.5044 9.64701 14.6423 9.62961 14.7755 9.65498L14.4014 11.6197C14.6825 11.6732 14.9734 11.6365 15.2325 11.5147L14.3816 9.70472ZM14.7755 9.65498C14.9087 9.68035 15.0305 9.74719 15.1235 9.84597L13.667 11.2166C13.8631 11.4251 14.1202 11.5661 14.4014 11.6197L14.7755 9.65498ZM15.1252 9.8478L12.5002 7.04436L11.0403 8.41133L13.6653 11.2148L15.1252 9.8478ZM12.5395 7.08888C12.4137 6.93742 12.256 6.81544 12.0776 6.73172L11.2279 8.54223C11.1402 8.50109 11.0628 8.44118 11.001 8.36682L12.5395 7.08888ZM12.0776 6.73172C11.8993 6.64803 11.7047 6.60464 11.5078 6.60464V8.60464C11.411 8.60464 11.3155 8.58334 11.2279 8.54223L12.0776 6.73172ZM11.5078 6.60464C11.3108 6.60464 11.1162 6.64803 10.9379 6.73172L11.7877 8.54223C11.7001 8.58334 11.6045 8.60464 11.5078 8.60464V6.60464ZM10.9379 6.73172C10.7595 6.81544 10.6019 6.93742 10.476 7.08888L12.0145 8.36682C11.9527 8.44118 11.8753 8.50109 11.7877 8.54223L10.9379 6.73172ZM10.5153 7.04436L7.89037 9.8478L9.3503 11.2148L11.9752 8.41133L10.5153 7.04436ZM7.89209 9.84597C7.98505 9.74719 8.10685 9.68035 8.24008 9.65498L8.61418 11.6197C8.89535 11.5661 9.15241 11.4251 9.34858 11.2166L7.89209 9.84597ZM8.24008 9.65498C8.37329 9.62961 8.51113 9.64701 8.6339 9.70472L7.78305 11.5147C8.04212 11.6365 8.33303 11.6732 8.61418 11.6197L8.24008 9.65498ZM8.6339 9.70472C8.75667 9.76243 8.85802 9.85748 8.92348 9.97624L7.17194 10.9417C7.31011 11.1924 7.52399 11.3929 7.78305 11.5147L8.6339 9.70472ZM8.92348 9.97624C8.98896 10.095 9.01519 10.2315 8.99844 10.3661L7.01375 10.119C6.9784 10.4031 7.03376 10.691 7.17194 10.9417L8.92348 9.97624ZM9.0061 10.2425V0H7.0061V10.2425H9.0061ZM8.0061 1H15.0095V-1H8.0061V1Z" fill="#CED0CE" mask="url(#path-1-inside-1_69_32)"/>
<path d="M4.72491 0.5H5.93637V13.4185C5.93257 13.6212 5.989 13.8206 6.09857 13.9913C6.20951 14.1642 6.36983 14.2997 6.55875 14.3804C6.74765 14.461 6.95643 14.4831 7.15803 14.4436L7.06201 13.9529L7.15803 14.4436C7.35738 14.4046 7.54057 14.3073 7.68441 14.164L11.4976 10.4925L11.4976 10.4925L11.5008 10.4894C11.5054 10.4848 11.5117 10.4822 11.5183 10.4822C11.5248 10.4822 11.5311 10.4848 11.5358 10.4894L11.539 10.4925L15.3521 14.164C15.496 14.3072 15.6791 14.4046 15.8785 14.4436L15.9745 13.9529L15.8785 14.4436C16.0801 14.4831 16.2889 14.461 16.4778 14.3804C16.6667 14.2997 16.827 14.1642 16.938 13.9913C17.0476 13.8206 17.104 13.6213 17.1002 13.4186V0.5H20.2751C20.8303 0.5 21.3801 0.609434 21.893 0.822048C22.4059 1.03466 22.8718 1.34629 23.2642 1.7391C23.6566 2.13192 23.9677 2.59822 24.1798 3.11135C24.3918 3.62448 24.5006 4.17438 24.5 4.7296V4.73015V20.2751C24.5 21.3956 24.0549 22.4702 23.2626 23.2626C22.4702 24.0549 21.3956 24.5 20.2751 24.5H4.72491C3.60439 24.5 2.52977 24.0549 1.73744 23.2626C0.94512 22.4702 0.5 21.3956 0.5 20.2751V4.72491C0.5 3.60439 0.94512 2.52977 1.73744 1.73744C2.52977 0.94512 3.60439 0.5 4.72491 0.5ZM4.9349 22.7333H17.0097C17.3511 22.7333 17.6786 22.5977 17.9201 22.3562C18.1615 22.1148 18.2971 21.7873 18.2971 21.4458C18.2971 21.1044 18.1615 20.7769 17.9201 20.5354C17.6786 20.294 17.3511 20.1583 17.0097 20.1583H4.9349C4.59343 20.1583 4.26596 20.294 4.02451 20.5354C3.78307 20.7769 3.64741 21.1043 3.64741 21.4458C3.64741 21.7873 3.78306 22.1148 4.02451 22.3562C4.26597 22.5977 4.59344 22.7333 4.9349 22.7333ZM4.9244 19.0584H21.3986C21.74 19.0584 22.0675 18.9227 22.309 18.6813C22.5504 18.4398 22.6861 18.1123 22.6861 17.7709C22.6861 17.4294 22.5504 17.102 22.309 16.8605C22.0675 16.6191 21.74 16.4834 21.3986 16.4834H4.9244C4.58294 16.4834 4.25546 16.6191 4.01401 16.8605C3.77256 17.102 3.63692 17.4294 3.63692 17.7709C3.63692 18.1123 3.77255 18.4398 4.01401 18.6813C4.25547 18.9227 4.58295 19.0584 4.9244 19.0584Z" stroke="#CED0CE"/>
</svg>
