<svg width="30" height="30" viewBox="0 0 30 30" fill="none" xmlns="http://www.w3.org/2000/svg">
<path d="M17.1627 27.1555C17.226 27.2189 17.3011 27.2691 17.3838 27.3034C17.4665 27.3376 17.5552 27.3553 17.6447 27.3553C17.7342 27.3553 17.8229 27.3376 17.9056 27.3034C17.9883 27.2691 18.0635 27.2189 18.1268 27.1555L18.4091 26.8733V27.2727C18.4091 27.4536 18.4809 27.627 18.6088 27.7548C18.7367 27.8827 18.9101 27.9545 19.0909 27.9545C19.2717 27.9545 19.4452 27.8827 19.573 27.7548C19.7009 27.627 19.7727 27.4536 19.7727 27.2727V26.8733L20.0551 27.1555C20.1837 27.2797 20.3559 27.3484 20.5347 27.3469C20.7134 27.3453 20.8844 27.2736 21.0109 27.1472C21.1373 27.0208 21.209 26.8498 21.2105 26.671C21.2121 26.4923 21.1434 26.32 21.0192 26.1914L20.0551 25.2273L21.0192 24.2631C21.1434 24.1345 21.2121 23.9623 21.2105 23.7835C21.209 23.6048 21.1373 23.4337 21.0109 23.3073C20.8844 23.1809 20.7134 23.1092 20.5347 23.1077C20.3559 23.1061 20.1837 23.1748 20.0551 23.299L19.7727 23.5813V23.1818C19.7727 23.001 19.7009 22.8276 19.573 22.6997C19.4452 22.5718 19.2717 22.5 19.0909 22.5C18.9101 22.5 18.7367 22.5718 18.6088 22.6997C18.4809 22.8276 18.4091 23.001 18.4091 23.1818V23.5813L18.1268 23.299C17.9982 23.1748 17.8259 23.1061 17.6472 23.1077C17.4684 23.1092 17.2974 23.1809 17.171 23.3073C17.0446 23.4337 16.9729 23.6048 16.9713 23.7835C16.9697 23.9623 17.0385 24.1345 17.1627 24.2631L18.1268 25.2273L17.1627 26.1914C17.0348 26.3193 16.963 26.4927 16.963 26.6735C16.963 26.8543 17.0348 27.0277 17.1627 27.1555ZM23.299 27.1555C23.3623 27.2189 23.4375 27.2691 23.5202 27.3034C23.6029 27.3376 23.6915 27.3553 23.7811 27.3553C23.8706 27.3553 23.9593 27.3376 24.042 27.3034C24.1247 27.2691 24.1998 27.2189 24.2631 27.1555L24.5455 26.8733V27.2727C24.5455 27.4536 24.6173 27.627 24.7452 27.7548C24.873 27.8827 25.0465 27.9545 25.2273 27.9545C25.4081 27.9545 25.5815 27.8827 25.7094 27.7548C25.8373 27.627 25.9091 27.4536 25.9091 27.2727V26.8733L26.1914 27.1555C26.32 27.2797 26.4923 27.3484 26.671 27.3469C26.8498 27.3453 27.0208 27.2736 27.1472 27.1472C27.2736 27.0208 27.3453 26.8498 27.3469 26.671C27.3485 26.4923 27.2797 26.32 27.1555 26.1914L26.1914 25.2273L27.1555 24.2631C27.2797 24.1345 27.3485 23.9623 27.3469 23.7835C27.3453 23.6048 27.2736 23.4337 27.1472 23.3073C27.0208 23.1809 26.8498 23.1092 26.671 23.1077C26.4923 23.1061 26.32 23.1748 26.1914 23.299L25.9091 23.5813V23.1818C25.9091 23.001 25.8373 22.8276 25.7094 22.6997C25.5815 22.5718 25.4081 22.5 25.2273 22.5C25.0465 22.5 24.873 22.5718 24.7452 22.6997C24.6173 22.8276 24.5455 23.001 24.5455 23.1818V23.5813L24.2631 23.299C24.1345 23.1748 23.9623 23.1061 23.7835 23.1077C23.6048 23.1092 23.4338 23.1809 23.3073 23.3073C23.1809 23.4337 23.1092 23.6048 23.1077 23.7835C23.1061 23.9623 23.1748 24.1345 23.299 24.2631L24.2631 25.2273L23.299 26.1914C23.1712 26.3193 23.0994 26.4927 23.0994 26.6735C23.0994 26.8543 23.1712 27.0277 23.299 27.1555ZM11.0263 27.1555C11.0896 27.2189 11.1647 27.2691 11.2474 27.3034C11.3302 27.3376 11.4188 27.3553 11.5083 27.3553C11.5979 27.3553 11.6865 27.3376 11.7692 27.3034C11.852 27.2691 11.9271 27.2189 11.9904 27.1555L12.2727 26.8733V27.2727C12.2727 27.4536 12.3446 27.627 12.4724 27.7548C12.6003 27.8827 12.7737 27.9545 12.9546 27.9545C13.1354 27.9545 13.3088 27.8827 13.4367 27.7548C13.5645 27.627 13.6364 27.4536 13.6364 27.2727V26.8733L13.9187 27.1555C14.0473 27.2797 14.2195 27.3484 14.3983 27.3469C14.5771 27.3453 14.7481 27.2736 14.8745 27.1472C15.0009 27.0208 15.0726 26.8498 15.0742 26.671C15.0757 26.4923 15.007 26.32 14.8828 26.1914L13.9187 25.2273L14.8828 24.2631C15.007 24.1345 15.0757 23.9623 15.0742 23.7835C15.0726 23.6048 15.0009 23.4337 14.8745 23.3073C14.7481 23.1809 14.5771 23.1092 14.3983 23.1077C14.2195 23.1061 14.0473 23.1748 13.9187 23.299L13.6364 23.5813V23.1818C13.6364 23.001 13.5645 22.8276 13.4367 22.6997C13.3088 22.5718 13.1354 22.5 12.9546 22.5C12.7737 22.5 12.6003 22.5718 12.4724 22.6997C12.3446 22.8276 12.2727 23.001 12.2727 23.1818V23.5813L11.9904 23.299C11.8618 23.1748 11.6896 23.1061 11.5108 23.1077C11.332 23.1092 11.161 23.1809 11.0346 23.3073C10.9082 23.4337 10.8365 23.6048 10.8349 23.7835C10.8334 23.9623 10.9021 24.1345 11.0263 24.2631L11.9904 25.2273L11.0263 26.1914C10.8985 26.3193 10.8267 26.4927 10.8267 26.6735C10.8267 26.8543 10.8985 27.0277 11.0263 27.1555Z" fill="#CED0CE"/>
<path d="M28.6364 20.4545H21.8182V10.9091C21.8174 10.186 21.5298 9.49275 21.0185 8.98145C20.5072 8.47016 19.814 8.18258 19.0909 8.18182H17.7273V4.77273C17.7258 3.50737 17.2225 2.29426 16.3278 1.39951C15.433 0.504771 14.2199 0.00146166 12.9545 0H8.86364C7.59828 0.00146166 6.38517 0.504771 5.49042 1.39951C4.59568 2.29426 4.09237 3.50737 4.09091 4.77273V8.18182H2.72727C2.00419 8.18258 1.31094 8.47016 0.799637 8.98145C0.288338 9.49275 0.000758046 10.186 0 10.9091V24.5455C0.000703995 25.2686 0.288267 25.9618 0.799577 26.4732C1.31089 26.9845 2.00417 27.272 2.72727 27.2727H8.18182V28.6364C8.18231 28.9979 8.32613 29.3444 8.58176 29.6001C8.83738 29.8557 9.18395 29.9995 9.54545 30H28.6364C28.9979 29.9995 29.3444 29.8557 29.6001 29.6001C29.8557 29.3444 29.9995 28.9979 30 28.6364V21.8182C29.9995 21.4567 29.8557 21.1101 29.6001 20.8545C29.3444 20.5989 28.9979 20.455 28.6364 20.4545ZM5.45455 4.77273C5.45561 3.86891 5.81512 3.00241 6.45422 2.36331C7.09332 1.72421 7.95982 1.3647 8.86364 1.36364H12.9545C13.8584 1.3647 14.7249 1.72421 15.364 2.36331C16.0031 3.00241 16.3626 3.86891 16.3636 4.77273V8.18182H5.45455V4.77273ZM2.72727 25.9091C2.36576 25.9086 2.0192 25.7648 1.76357 25.5092C1.50795 25.2535 1.36412 24.907 1.36364 24.5455V10.9091C1.36405 10.5476 1.50785 10.201 1.76349 9.94531C2.01914 9.68967 2.36574 9.54587 2.72727 9.54545H19.0909C19.4524 9.54587 19.799 9.68967 20.0547 9.94531C20.3103 10.201 20.4541 10.5476 20.4545 10.9091V20.4545H9.54545C9.18395 20.455 8.83738 20.5989 8.58176 20.8545C8.32613 21.1101 8.18231 21.4567 8.18182 21.8182V25.9091H2.72727ZM28.6364 28.6364H9.54545V21.8182L28.6364 21.8202V28.6364Z" fill="#CED0CE"/>
</svg>
