<svg width="27" height="25" viewBox="0 0 27 25" fill="none" xmlns="http://www.w3.org/2000/svg">
<path d="M13.0769 14.0385C16.9615 14.0385 20.0769 10.8846 20.0769 7.03847C20.0769 3.19231 16.9615 0 13.0769 0C9.19231 0 6.07693 3.15385 6.07693 7.00001C6.07693 10.8462 9.19231 14.0385 13.0769 14.0385ZM13.0769 1.84615C15.9231 1.84615 18.2308 4.15385 18.2308 7.00001C18.2308 9.84616 15.9231 12.1539 13.0769 12.1539C10.2308 12.1539 7.92308 9.88462 7.92308 7.03847C7.92308 4.19231 10.2308 1.84615 13.0769 1.84615Z" fill="#E6E8E6"/>
<path d="M0.923077 25.0001H25.3077C25.8077 25.0001 26.2308 24.577 26.2308 24.077C26.2308 19.2308 22.2692 15.2693 17.4231 15.2693H8.8077C3.96154 15.2693 0 19.2308 0 24.077C0 24.577 0.423077 25.0001 0.923077 25.0001ZM8.8077 17.1154H17.4231C20.9616 17.1154 23.8462 19.7308 24.3077 23.1539H1.92308C2.38462 19.7308 5.26923 17.1154 8.8077 17.1154Z" fill="#E6E8E6"/>
</svg>
