<svg width="30" height="27" viewBox="0 0 30 27" fill="none" xmlns="http://www.w3.org/2000/svg">
<path d="M22.3704 8.27526C22.3521 11.3105 20.4383 14.1384 17.5677 15.1867C14.63 16.2594 11.3084 15.3574 9.30928 12.9561C7.33457 10.5852 7.10296 7.10506 8.68761 4.47821C10.2723 1.83917 13.4476 0.431276 16.4706 1.05294C19.4693 1.66852 21.8036 4.11862 22.2912 7.13554C22.346 7.51341 22.3704 7.89738 22.3704 8.27526C22.3765 8.86036 23.2907 8.86645 23.2846 8.27526C23.2663 4.81952 21.0905 1.69899 17.8481 0.498318C14.6178 -0.702354 10.8269 0.32157 8.63276 2.97889C6.41425 5.67279 6.09123 9.57345 7.91357 12.5721C9.71763 15.5281 13.2343 17.0578 16.623 16.3996C19.963 15.7475 22.6629 12.9439 23.1749 9.57954C23.2419 9.14681 23.2785 8.71408 23.2785 8.28136C23.2907 7.69016 22.3765 7.69016 22.3704 8.27526ZM0.782676 26.1878C3.79959 23.2319 7.60274 21.1413 11.7838 20.4344C15.7149 19.77 19.8167 20.3978 23.4065 22.1165C25.5519 23.1465 27.5083 24.53 29.2148 26.1878C29.6354 26.5962 30.2875 25.9501 29.8609 25.5418C26.7464 22.531 22.8153 20.3612 18.5307 19.5933C14.3984 18.8497 10.1321 19.4226 6.32283 21.1962C4.03119 22.2689 1.94678 23.7682 0.136629 25.5418C-0.283911 25.9501 0.362136 26.5962 0.782676 26.1878Z" fill="#CED0CE"/>
</svg>
